<?xml version="1.0" encoding="UTF-8"?>
<svg id="Layer_9" data-name="Layer 9" xmlns="http://www.w3.org/2000/svg" xmlns:xlink="http://www.w3.org/1999/xlink" viewBox="0 0 6034.53 2706.56">
  <defs>
    <style>
      .cls-1 {
        fill: url(#linear-gradient-2);
      }

      .cls-2 {
        fill: url(#linear-gradient);
      }
    </style>
    <linearGradient id="linear-gradient" x1="1745.46" y1="1252.36" x2="1885.66" y2="1252.36" gradientUnits="userSpaceOnUse">
      <stop offset="0" stop-color="#c33764"/>
      <stop offset="1" stop-color="#9a4eae"/>
    </linearGradient>
    <linearGradient id="linear-gradient-2" x1="1745.46" y1="1252.36" x2="1885.66" y2="1252.36" gradientUnits="userSpaceOnUse">
      <stop offset=".19" stop-color="#c33764"/>
      <stop offset=".65" stop-color="#8b389a"/>
      <stop offset="1" stop-color="#0d646b"/>
    </linearGradient>
  </defs>
  <path class="cls-2" d="M1811.36,1315.18l9.67-20.24,6.57,13.71h23.04s-29.62-60.52-29.62-60.52l-26.22,53.57c-2.46,4.24-6.61,7-11.59,6.99h0s37.82-82.6,37.82-82.6l46.14,102.11h0c13.51,0,22.44-13.26,16.71-24.81l-62.86-126.9-75.59,151.71,46.75.03c8.7,0,14.86-5.51,19.15-13.05Z"/>
  <path d="M1916.38,1178.68c8.72,0,14.74,5.6,14.74,14.32s-6.02,14.11-14.74,14.11-14.74-5.6-14.74-14.11,5.81-14.32,14.74-14.32ZM1929.04,1222.88v103.77h-25.32v-103.77h25.32Z"/>
  <path d="M1961.41,1222.88h23.24c.21,4.15.41,8.3.41,12.24,0,3.53-.21,6.43,0,7.26,6.43-12.66,17.23-22.21,31.55-22.21,3.11,0,5.81.41,6.43.62v24.49c-.62,0-2.91-.83-6.23-.83-17.85,0-30.09,18.06-30.09,37.56v44.62h-25.32v-103.77Z"/>
  <path d="M2144.25,1274.77c0,31.34-22.83,54.58-54.38,54.58s-54.37-23.24-54.37-54.58,23.04-54.58,54.37-54.58,54.38,23.24,54.38,54.58ZM2120.17,1274.77c0-19.51-12.87-33-30.3-33s-30.3,13.49-30.3,33,13.07,33,30.3,33,30.3-13.49,30.3-33Z"/>
  <path d="M2170.39,1326.65v-149.43h36.02c39.14,0,64.64,30.51,64.64,74.71s-25.16,74.71-64.14,74.71h-36.51ZM2191.12,1199.22v105.43h15.62c26.48,0,43.42-21.79,43.42-52.72s-16.94-52.71-43.91-52.71h-15.13Z"/>
  <path d="M2391.84,1268.75c0,4.77-.62,9.34-.62,11.21h-72.43c.62,17.43,13.08,27.81,32.17,27.81,14.53,0,29.68-4.36,36.73-8.72v22.21c-7.26,3.94-21.17,8.09-38.6,8.09-34.45,0-56.66-22.62-56.66-54.58s22.62-54.58,51.88-54.58c31.13,0,47.53,22.83,47.53,48.56ZM2343.9,1240.52c-14.94,0-23.87,11.62-25.11,24.7h48.56c.21-13.08-7.89-24.7-23.45-24.7Z"/>
  <path d="M2439.78,1222.88l.62,13.28c0,3.94-.83,6.64-.83,7.47h.42c4.15-9.55,17.85-23.45,37.56-23.45,24.49,0,35.9,14.74,35.9,41.51v64.96h-25.32v-60.6c0-12.04-2.91-22.83-17.02-22.83-17.23,0-29.47,13.7-29.47,31.96v51.47h-25.32v-103.77h23.45Z"/>
  <path d="M2545.83,1222.88v-31.13h24.49v31.13h29.47v20.13h-29.47v47.53c0,12.87,6.64,17.23,14.32,17.23,6.43,0,13.49-2.08,18.68-4.36v21.17c-4.77,2.49-13.7,4.77-24.9,4.77-15.77,0-31.55-7.68-32.79-30.09,0-3.32-.21-6.85-.21-10.38v-45.87h-15.77v-20.13h16.19Z"/>
  <path d="M2623.86,1227.66c5.81-3.11,19.72-7.47,37.36-7.47,30.71,0,45.86,14.74,45.86,40.68v65.79h-23.04l-.41-10.79c-.21-4.77.41-7.89.41-7.89h-.41c-1.87,4.57-12.87,21.38-34.04,21.38-18.47,0-33-11-33-30.92,0-25.53,25.11-37.98,65.37-32.38v-3.94c0-15.15-9.55-20.34-24.7-20.34-13.7,0-26.77,4.57-33.41,8.72v-22.83ZM2681.35,1280.99c-28.43-4.57-40.47,3.53-40.47,15.36,0,7.89,5.6,13.28,14.32,13.28,14.94,0,26.15-14.11,26.15-28.64Z"/>
  <path d="M2735.51,1177.22h25.32v115.81c0,10.38,3.74,14.32,11.21,14.32,4.15,0,8.09-1.04,9.75-1.66v21.17c-2.08.83-8.3,2.49-16.81,2.49-16.6,0-29.47-8.51-29.47-30.92v-121.2Z"/>
  <path class="cls-1" d="M1811.36,1315.18l9.67-20.24,6.57,13.71h23.04s-29.62-60.52-29.62-60.52l-26.22,53.57c-2.46,4.24-6.61,7-11.59,6.99h0s37.82-82.6,37.82-82.6l46.14,102.11h0c13.51,0,22.44-13.26,16.71-24.81l-62.86-126.9-75.59,151.71,46.75.03c8.7,0,14.86-5.51,19.15-13.05Z"/>
</svg>